<svg id="svg" version="1.1" xmlns="http://www.w3.org/2000/svg" xmlns:xlink="http://www.w3.org/1999/xlink" width="400" height="400" viewBox="0, 0, 400,400"><g id="svgg"><path id="path0" d="M37.200 31.000 L 37.200 37.200 31.000 37.200 C 25.756 37.200,24.800 37.292,24.800 37.800 C 24.800 38.851,36.532 38.668,37.600 37.600 C 38.668 36.532,38.851 24.800,37.800 24.800 C 37.292 24.800,37.200 25.756,37.200 31.000 M337.600 30.952 C 337.600 38.251,336.955 37.600,344.190 37.600 C 348.676 37.600,349.553 37.700,349.757 38.233 C 350.376 39.845,350.016 62.308,349.367 62.557 C 349.019 62.691,346.234 62.800,343.178 62.800 L 337.621 62.800 337.510 68.900 L 337.400 75.000 331.400 75.200 L 325.400 75.400 325.200 81.400 L 325.000 87.400 319.000 87.600 L 313.000 87.800 312.800 93.800 L 312.600 99.800 306.400 100.000 L 300.200 100.200 300.000 106.400 L 299.800 112.600 293.800 112.800 L 287.800 113.000 287.600 119.000 L 287.400 125.000 281.400 125.200 L 275.400 125.400 275.200 131.400 L 275.000 137.400 268.900 137.510 L 262.800 137.621 262.800 143.178 C 262.800 150.652,263.389 150.000,256.637 150.000 C 249.547 150.000,250.000 149.547,250.000 156.637 C 250.000 163.389,250.652 162.800,243.178 162.800 L 237.621 162.800 237.510 168.900 L 237.400 175.000 231.400 175.200 L 225.400 175.400 225.200 181.400 L 225.000 187.400 219.000 187.600 L 213.000 187.800 212.800 193.800 L 212.600 199.800 206.400 200.000 L 200.200 200.200 200.000 206.400 L 199.800 212.600 193.800 212.800 L 187.800 213.000 187.600 219.000 L 187.400 225.000 181.400 225.200 L 175.400 225.400 175.200 231.400 L 175.000 237.400 168.900 237.510 L 162.800 237.621 162.800 243.178 C 162.800 250.652,163.389 250.000,156.637 250.000 C 149.547 250.000,150.000 249.547,150.000 256.637 C 150.000 263.389,150.652 262.800,143.178 262.800 L 137.621 262.800 137.510 268.900 L 137.400 275.000 131.400 275.200 L 125.400 275.400 125.200 281.400 L 125.000 287.400 119.000 287.600 L 113.000 287.800 112.800 293.800 L 112.600 299.800 106.400 300.000 L 100.200 300.200 100.000 306.400 L 99.800 312.600 93.800 312.800 L 87.800 313.000 87.800 325.200 L 87.800 337.400 100.200 337.712 C 107.020 337.884,160.430 338.110,218.889 338.215 L 325.178 338.404 325.289 344.102 L 325.400 349.800 331.295 349.911 C 338.291 350.042,337.683 349.329,337.515 357.200 L 337.400 362.600 331.300 362.710 L 325.200 362.821 325.200 368.810 L 325.200 374.800 181.811 374.800 L 38.421 374.800 38.311 368.933 C 38.230 364.676,38.063 363.020,37.700 362.900 C 37.315 362.772,37.200 364.109,37.200 368.720 C 37.200 374.590,37.217 374.711,38.100 374.948 C 39.330 375.277,316.795 375.266,328.135 374.936 L 337.200 374.672 337.200 368.836 L 337.200 363.000 343.410 363.143 L 349.621 363.286 349.510 356.943 L 349.400 350.600 343.800 350.493 C 336.825 350.360,337.200 350.744,337.200 343.724 L 337.200 338.400 331.387 338.400 C 326.590 338.400,325.535 338.295,325.345 337.800 C 325.141 337.269,312.906 337.200,218.557 337.200 L 112.000 337.200 112.000 325.262 C 112.000 310.610,111.210 312.000,119.531 312.000 L 125.600 312.000 125.600 306.200 L 125.600 300.400 131.400 300.400 L 137.200 300.400 137.200 294.014 C 137.200 286.291,136.709 286.800,144.163 286.800 L 149.579 286.800 149.689 280.900 L 149.800 275.000 156.500 274.890 L 163.200 274.781 163.200 268.990 L 163.200 263.200 168.990 263.200 L 174.781 263.200 174.890 256.500 L 175.000 249.800 180.900 249.689 L 186.800 249.579 186.800 244.163 C 186.800 236.709,186.291 237.200,194.014 237.200 L 200.400 237.200 200.400 231.400 L 200.400 225.600 206.200 225.600 L 212.000 225.600 212.000 219.462 C 212.000 211.523,211.519 212.000,219.531 212.000 L 225.600 212.000 225.600 206.200 L 225.600 200.400 231.400 200.400 L 237.200 200.400 237.200 194.014 C 237.200 186.291,236.709 186.800,244.163 186.800 L 249.579 186.800 249.689 180.900 L 249.800 175.000 256.500 174.890 L 263.200 174.781 263.200 168.990 L 263.200 163.200 268.990 163.200 L 274.781 163.200 274.890 156.500 L 275.000 149.800 280.900 149.689 L 286.800 149.579 286.800 144.163 C 286.800 136.709,286.291 137.200,294.014 137.200 L 300.400 137.200 300.400 131.400 L 300.400 125.600 306.200 125.600 L 312.000 125.600 312.000 119.462 C 312.000 111.523,311.519 112.000,319.531 112.000 L 325.600 112.000 325.600 106.200 L 325.600 100.400 331.400 100.400 L 337.200 100.400 337.200 94.014 C 337.200 86.291,336.709 86.800,344.163 86.800 L 349.579 86.800 349.689 80.900 L 349.800 75.000 356.500 74.890 L 363.200 74.781 363.200 68.990 L 363.200 63.200 369.000 63.200 L 374.800 63.200 374.800 50.800 L 374.800 38.400 368.900 38.400 L 363.000 38.401 363.000 31.700 L 363.000 25.000 350.300 24.894 L 337.600 24.789 337.600 30.952 M30.900 49.899 L 37.200 50.020 37.200 56.367 C 37.200 61.640,37.302 62.753,37.800 62.945 C 38.317 63.143,38.400 62.330,38.400 57.049 C 38.400 49.093,38.897 49.572,30.769 49.689 L 24.600 49.778 30.900 49.899 M274.717 63.140 C 275.126 63.399,275.210 66.004,275.117 75.534 C 275.053 82.171,275.135 87.600,275.300 87.600 C 275.465 87.600,275.600 82.020,275.600 75.200 C 275.600 63.655,275.552 62.800,274.900 62.806 C 274.381 62.811,274.334 62.897,274.717 63.140 M265.300 87.897 C 267.005 87.972,269.795 87.972,271.500 87.897 C 273.205 87.822,271.810 87.761,268.400 87.761 C 264.990 87.761,263.595 87.822,265.300 87.897 M249.999 106.000 C 249.890 109.630,249.845 112.675,249.900 112.767 C 250.299 113.432,250.406 111.654,250.310 105.956 L 250.199 99.400 249.999 106.000 M237.700 113.065 C 236.895 113.390,236.992 124.800,237.800 124.800 C 238.306 124.800,238.400 123.890,238.400 119.011 L 238.400 113.223 243.900 113.099 L 249.400 112.975 243.800 112.919 C 240.720 112.888,237.975 112.954,237.700 113.065 M212.992 138.100 C 212.870 138.595,212.827 141.340,212.898 144.200 L 213.026 149.400 213.113 143.900 L 213.200 138.400 219.000 138.400 C 223.889 138.400,224.800 138.306,224.800 137.800 C 224.800 136.648,213.280 136.941,212.992 138.100 M205.800 150.000 L 199.400 150.231 206.100 150.315 C 210.356 150.369,212.800 150.254,212.800 150.000 C 212.800 149.780,212.665 149.638,212.500 149.685 C 212.335 149.731,209.320 149.873,205.800 150.000 M187.761 168.400 C 187.761 171.810,187.822 173.205,187.897 171.500 C 187.972 169.795,187.972 167.005,187.897 165.300 C 187.822 163.595,187.761 164.990,187.761 168.400 M181.283 175.099 C 177.231 175.186,175.517 175.365,175.398 175.711 C 175.094 176.595,174.993 187.601,175.289 187.601 C 175.448 187.600,175.628 184.945,175.689 181.700 L 175.800 175.800 181.700 175.689 C 185.183 175.624,187.600 175.419,187.600 175.189 C 187.600 174.975,187.465 174.840,187.300 174.888 C 187.135 174.937,184.427 175.032,181.283 175.099 M165.300 187.897 C 167.005 187.972,169.795 187.972,171.500 187.897 C 173.205 187.822,171.810 187.761,168.400 187.761 C 164.990 187.761,163.595 187.822,165.300 187.897 M149.999 206.000 C 149.890 209.630,149.845 212.675,149.900 212.767 C 150.299 213.432,150.406 211.654,150.310 205.956 L 150.199 199.400 149.999 206.000 M137.700 213.065 C 136.895 213.390,136.992 224.800,137.800 224.800 C 138.306 224.800,138.400 223.890,138.400 219.011 L 138.400 213.223 143.900 213.099 L 149.400 212.975 143.800 212.919 C 140.720 212.888,137.975 212.954,137.700 213.065 M112.992 238.100 C 112.870 238.595,112.827 241.340,112.898 244.200 L 113.026 249.400 113.113 243.900 L 113.200 238.400 119.000 238.400 C 123.889 238.400,124.800 238.306,124.800 237.800 C 124.800 236.648,113.280 236.941,112.992 238.100 M105.800 250.000 L 99.400 250.231 106.100 250.315 C 110.356 250.369,112.800 250.254,112.800 250.000 C 112.800 249.780,112.665 249.638,112.500 249.685 C 112.335 249.731,109.320 249.873,105.800 250.000 M87.761 268.400 C 87.761 271.810,87.822 273.205,87.897 271.500 C 87.972 269.795,87.972 267.005,87.897 265.300 C 87.822 263.595,87.761 264.990,87.761 268.400 M81.283 275.099 C 77.231 275.186,75.517 275.365,75.398 275.711 C 75.094 276.595,74.993 287.601,75.289 287.601 C 75.448 287.600,75.628 284.945,75.689 281.700 L 75.800 275.800 81.700 275.689 C 85.183 275.624,87.600 275.419,87.600 275.189 C 87.600 274.975,87.465 274.840,87.300 274.888 C 87.135 274.937,84.427 275.032,81.283 275.099 M65.300 287.897 C 67.005 287.972,69.795 287.972,71.500 287.897 C 73.205 287.822,71.810 287.761,68.400 287.761 C 64.990 287.761,63.595 287.822,65.300 287.897 M49.999 306.000 C 49.890 309.630,49.845 312.675,49.900 312.767 C 50.299 313.432,50.406 311.654,50.310 305.956 L 50.199 299.400 49.999 306.000 M37.700 313.065 C 36.895 313.390,36.992 324.800,37.800 324.800 C 38.306 324.800,38.400 323.890,38.400 319.011 L 38.400 313.223 43.900 313.099 L 49.400 312.975 43.800 312.919 C 40.720 312.888,37.975 312.954,37.700 313.065 " stroke="none" fill="#042c7c" fill-rule="evenodd"></path><path id="path1" d="M38.437 38.556 C 38.127 38.929,38.012 40.804,38.088 44.256 L 38.200 49.400 156.800 49.600 L 275.400 49.800 275.510 56.090 L 275.620 62.379 281.710 62.490 L 287.800 62.600 287.800 75.200 L 287.800 87.800 281.800 88.000 L 275.800 88.200 275.689 93.983 C 275.555 100.929,276.145 100.386,268.710 100.394 L 262.820 100.400 262.710 106.700 L 262.600 113.000 256.500 113.110 L 250.400 113.221 250.400 119.168 C 250.400 126.230,251.068 125.600,243.578 125.600 L 238.021 125.600 237.910 131.700 L 237.800 137.800 231.700 137.910 L 225.600 138.021 225.600 143.578 C 225.600 151.068,226.230 150.400,219.168 150.400 L 213.221 150.400 213.110 156.500 L 213.000 162.600 206.700 162.710 L 200.400 162.820 200.394 168.710 C 200.386 176.145,200.929 175.555,193.983 175.689 L 188.200 175.800 188.000 181.800 L 187.800 187.800 181.800 188.000 L 175.800 188.200 175.689 193.983 C 175.555 200.929,176.145 200.386,168.710 200.394 L 162.820 200.400 162.710 206.700 L 162.600 213.000 156.500 213.110 L 150.400 213.221 150.400 219.168 C 150.400 226.230,151.068 225.600,143.578 225.600 L 138.021 225.600 137.910 231.700 L 137.800 237.800 131.700 237.910 L 125.600 238.021 125.600 243.578 C 125.600 251.068,126.230 250.400,119.168 250.400 L 113.221 250.400 113.110 256.500 L 113.000 262.600 106.700 262.710 L 100.400 262.820 100.394 268.710 C 100.386 276.145,100.929 275.555,93.983 275.689 L 88.200 275.800 88.000 281.800 L 87.800 287.800 81.800 288.000 L 75.800 288.200 75.689 293.983 C 75.555 300.929,76.145 300.386,68.710 300.394 L 62.820 300.400 62.710 306.700 L 62.600 313.000 56.500 313.110 L 50.400 313.221 50.400 319.168 C 50.400 326.230,51.070 325.600,43.567 325.600 L 38.000 325.600 38.000 344.000 L 38.000 362.400 181.400 362.400 L 324.800 362.400 324.800 356.401 L 324.800 350.401 199.900 350.301 L 75.000 350.200 74.896 331.509 L 74.792 312.817 75.696 312.606 C 76.193 312.490,78.940 312.351,81.800 312.298 L 87.000 312.200 87.110 306.144 C 87.241 298.968,86.531 299.613,94.300 299.605 L 99.600 299.600 99.605 294.300 C 99.613 286.531,98.968 287.241,106.144 287.110 L 112.200 287.000 112.298 281.800 C 112.443 274.044,111.741 274.800,118.797 274.800 L 124.779 274.800 124.890 268.700 L 125.000 262.600 131.100 262.490 L 137.200 262.379 137.206 256.490 C 137.214 249.055,136.671 249.645,143.617 249.511 L 149.400 249.400 149.511 243.617 C 149.645 236.671,149.055 237.214,156.490 237.206 L 162.379 237.200 162.490 231.100 L 162.600 225.000 168.700 224.890 L 174.800 224.779 174.800 218.797 C 174.800 211.741,174.044 212.443,181.800 212.298 L 187.000 212.200 187.110 206.144 C 187.241 198.968,186.531 199.613,194.300 199.605 L 199.600 199.600 199.605 194.300 C 199.613 186.531,198.968 187.241,206.144 187.110 L 212.200 187.000 212.298 181.800 C 212.443 174.044,211.741 174.800,218.797 174.800 L 224.779 174.800 224.890 168.700 L 225.000 162.600 231.100 162.490 L 237.200 162.379 237.206 156.490 C 237.214 149.055,236.671 149.645,243.617 149.511 L 249.400 149.400 249.511 143.617 C 249.645 136.671,249.055 137.214,256.490 137.206 L 262.379 137.200 262.490 131.100 L 262.600 125.000 268.700 124.890 L 274.800 124.779 274.800 118.797 C 274.800 111.741,274.044 112.443,281.800 112.298 L 287.000 112.200 287.110 106.144 C 287.241 98.968,286.531 99.613,294.300 99.605 L 299.600 99.600 299.605 94.300 C 299.613 86.531,298.968 87.241,306.144 87.110 L 312.200 87.000 312.298 81.800 C 312.443 74.044,311.741 74.800,318.797 74.800 L 324.779 74.800 324.890 68.700 L 325.000 62.600 331.100 62.490 L 337.200 62.379 337.200 50.190 L 337.200 38.000 188.049 38.000 C 61.232 38.000,38.829 38.083,38.437 38.556 " stroke="none" fill="#0454fc" fill-rule="evenodd"></path><path id="path2" d="M38.400 30.800 C 38.400 36.267,38.329 36.871,37.600 37.600 C 36.871 38.329,36.267 38.400,30.800 38.400 L 24.800 38.400 24.800 44.000 L 24.800 49.600 30.938 49.600 C 38.877 49.600,38.400 49.118,38.400 57.134 L 38.400 63.205 157.000 63.103 L 275.600 63.000 275.600 75.253 L 275.600 87.507 274.700 87.748 C 274.205 87.881,271.235 87.992,268.100 87.995 L 262.400 88.000 262.400 93.800 L 262.400 99.600 256.400 99.600 L 250.400 99.600 250.400 106.153 C 250.400 113.905,251.104 113.186,243.500 113.195 L 238.400 113.200 238.400 119.000 L 238.400 124.800 231.600 124.800 L 224.800 124.800 224.800 131.600 L 224.800 138.400 219.000 138.400 L 213.200 138.400 213.195 143.500 C 213.186 151.104,213.905 150.400,206.153 150.400 L 199.600 150.400 199.600 156.400 L 199.600 162.400 193.800 162.400 L 188.000 162.400 187.995 168.100 C 187.987 176.314,188.618 175.558,181.656 175.690 L 175.800 175.800 175.690 181.656 C 175.558 188.618,176.314 187.987,168.100 187.995 L 162.400 188.000 162.400 193.800 L 162.400 199.600 156.400 199.600 L 150.400 199.600 150.400 206.153 C 150.400 213.905,151.104 213.186,143.500 213.195 L 138.400 213.200 138.400 219.000 L 138.400 224.800 131.600 224.800 L 124.800 224.800 124.800 231.600 L 124.800 238.400 119.000 238.400 L 113.200 238.400 113.195 243.500 C 113.186 251.104,113.905 250.400,106.153 250.400 L 99.600 250.400 99.600 256.400 L 99.600 262.400 93.800 262.400 L 88.000 262.400 87.995 268.100 C 87.987 276.314,88.618 275.558,81.656 275.690 L 75.800 275.800 75.690 281.656 C 75.558 288.618,76.314 287.987,68.100 287.995 L 62.400 288.000 62.400 293.800 L 62.400 299.600 56.400 299.600 L 50.400 299.600 50.400 306.153 C 50.400 313.905,51.104 313.186,43.500 313.195 L 38.400 313.200 38.400 319.000 L 38.400 324.800 31.596 324.800 L 24.792 324.800 24.896 343.900 L 25.000 363.000 31.600 363.053 L 38.200 363.107 38.311 368.953 L 38.421 374.800 181.811 374.800 L 325.200 374.800 325.200 368.810 L 325.200 362.821 331.300 362.710 L 337.400 362.600 337.515 357.200 C 337.683 349.329,338.291 350.042,331.295 349.911 L 325.400 349.800 325.289 344.102 L 325.178 338.404 218.889 338.215 C 160.430 338.110,107.020 337.884,100.200 337.712 L 87.800 337.400 87.800 325.200 L 87.800 313.000 93.800 312.800 L 99.800 312.600 100.000 306.400 L 100.200 300.200 106.400 300.000 L 112.600 299.800 112.800 293.800 L 113.000 287.800 119.000 287.600 L 125.000 287.400 125.200 281.400 L 125.400 275.400 131.400 275.200 L 137.400 275.000 137.510 268.900 L 137.621 262.800 143.178 262.800 C 150.652 262.800,150.000 263.389,150.000 256.637 C 150.000 249.547,149.547 250.000,156.637 250.000 C 163.389 250.000,162.800 250.652,162.800 243.178 L 162.800 237.621 168.900 237.510 L 175.000 237.400 175.200 231.400 L 175.400 225.400 181.400 225.200 L 187.400 225.000 187.600 219.000 L 187.800 213.000 193.800 212.800 L 199.800 212.600 200.000 206.400 L 200.200 200.200 206.400 200.000 L 212.600 199.800 212.800 193.800 L 213.000 187.800 219.000 187.600 L 225.000 187.400 225.200 181.400 L 225.400 175.400 231.400 175.200 L 237.400 175.000 237.510 168.900 L 237.621 162.800 243.178 162.800 C 250.652 162.800,250.000 163.389,250.000 156.637 C 250.000 149.547,249.547 150.000,256.637 150.000 C 263.389 150.000,262.800 150.652,262.800 143.178 L 262.800 137.621 268.900 137.510 L 275.000 137.400 275.200 131.400 L 275.400 125.400 281.400 125.200 L 287.400 125.000 287.600 119.000 L 287.800 113.000 293.800 112.800 L 299.800 112.600 300.000 106.400 L 300.200 100.200 306.400 100.000 L 312.600 99.800 312.800 93.800 L 313.000 87.800 319.000 87.600 L 325.000 87.400 325.200 81.400 L 325.400 75.400 331.400 75.200 L 337.400 75.000 337.510 68.900 L 337.621 62.800 343.178 62.800 C 346.234 62.800,349.019 62.691,349.367 62.557 C 350.016 62.308,350.376 39.845,349.757 38.233 C 349.553 37.700,348.676 37.600,344.190 37.600 C 336.955 37.600,337.600 38.250,337.600 30.957 L 337.600 24.800 188.000 24.800 L 38.400 24.800 38.400 30.800 M337.586 37.974 C 338.338 39.378,338.134 62.263,337.367 62.557 C 337.019 62.691,334.229 62.800,331.167 62.800 L 325.600 62.800 325.600 68.426 C 325.600 76.066,326.030 75.600,318.986 75.600 L 313.200 75.600 313.200 81.171 C 313.200 88.401,313.613 88.000,306.171 88.000 L 300.400 88.000 300.400 93.720 C 300.400 100.862,300.862 100.400,293.720 100.400 L 288.000 100.400 288.000 106.171 C 288.000 113.613,288.401 113.200,281.171 113.200 L 275.600 113.200 275.600 118.986 C 275.600 126.030,276.066 125.600,268.426 125.600 L 262.800 125.600 262.794 131.300 C 262.786 138.519,263.319 137.955,256.383 138.089 L 250.600 138.200 250.488 143.582 C 250.340 150.669,250.660 150.346,243.648 150.489 L 238.200 150.600 238.089 156.383 C 237.955 163.319,238.519 162.786,231.300 162.794 L 225.600 162.800 225.600 168.426 C 225.600 176.066,226.030 175.600,218.986 175.600 L 213.200 175.600 213.200 181.171 C 213.200 188.401,213.613 188.000,206.171 188.000 L 200.400 188.000 200.400 193.720 C 200.400 200.862,200.862 200.400,193.720 200.400 L 188.000 200.400 188.000 206.171 C 188.000 213.613,188.401 213.200,181.171 213.200 L 175.600 213.200 175.600 218.986 C 175.600 226.030,176.066 225.600,168.426 225.600 L 162.800 225.600 162.794 231.300 C 162.786 238.519,163.319 237.955,156.383 238.089 L 150.600 238.200 150.489 243.648 C 150.346 250.660,150.669 250.340,143.582 250.488 L 138.200 250.600 138.089 256.383 C 137.955 263.319,138.519 262.786,131.300 262.794 L 125.600 262.800 125.600 268.426 C 125.600 276.066,126.030 275.600,118.986 275.600 L 113.200 275.600 113.200 281.171 C 113.200 288.401,113.613 288.000,106.171 288.000 L 100.400 288.000 100.400 293.720 C 100.400 300.862,100.862 300.400,93.720 300.400 L 88.000 300.400 88.000 306.171 C 88.000 313.613,88.401 313.200,81.171 313.200 L 75.600 313.200 75.600 331.400 L 75.600 349.600 200.186 349.600 C 324.064 349.600,324.774 349.605,325.197 350.394 C 325.456 350.879,325.579 353.411,325.511 356.894 L 325.400 362.600 182.200 362.709 C 103.440 362.769,38.595 362.721,38.100 362.602 L 37.200 362.385 37.200 344.000 L 37.200 325.615 38.100 325.405 C 38.595 325.290,41.340 325.151,44.200 325.098 L 49.400 325.000 49.512 319.418 C 49.660 312.026,49.279 312.400,56.662 312.400 L 62.400 312.400 62.400 306.210 L 62.400 300.021 68.500 299.910 L 74.600 299.800 74.712 294.218 C 74.858 286.902,74.519 287.254,81.552 287.111 L 87.000 287.000 87.111 281.552 C 87.254 274.519,86.902 274.858,94.218 274.712 L 99.800 274.600 99.910 268.500 L 100.021 262.400 106.210 262.400 L 112.400 262.400 112.400 256.662 C 112.400 249.279,112.026 249.660,119.418 249.512 L 125.000 249.400 125.098 244.200 C 125.243 236.455,124.572 237.200,131.408 237.200 L 137.200 237.200 137.200 231.408 C 137.200 224.572,136.455 225.243,144.200 225.098 L 149.400 225.000 149.512 219.418 C 149.660 212.026,149.279 212.400,156.662 212.400 L 162.400 212.400 162.400 206.210 L 162.400 200.021 168.500 199.910 L 174.600 199.800 174.712 194.218 C 174.858 186.902,174.519 187.254,181.552 187.111 L 187.000 187.000 187.111 181.552 C 187.254 174.519,186.902 174.858,194.218 174.712 L 199.800 174.600 199.910 168.500 L 200.021 162.400 206.210 162.400 L 212.400 162.400 212.400 156.662 C 212.400 149.279,212.026 149.660,219.418 149.512 L 225.000 149.400 225.098 144.200 C 225.243 136.455,224.572 137.200,231.408 137.200 L 237.200 137.200 237.200 131.408 C 237.200 124.572,236.455 125.243,244.200 125.098 L 249.400 125.000 249.512 119.418 C 249.660 112.026,249.279 112.400,256.662 112.400 L 262.400 112.400 262.400 106.210 L 262.400 100.021 268.500 99.910 L 274.600 99.800 274.712 94.218 C 274.858 86.902,274.519 87.254,281.552 87.111 L 287.000 87.000 287.106 74.900 L 287.212 62.800 281.639 62.800 C 274.129 62.800,274.800 63.432,274.800 56.357 L 274.800 50.400 156.731 50.400 C 47.429 50.400,38.609 50.351,37.931 49.738 C 36.784 48.700,36.840 39.160,38.000 38.000 C 39.242 36.758,336.921 36.732,337.586 37.974 " stroke="none" fill="#043cb4" fill-rule="evenodd"></path><path id="path3" d="M38.000 38.000 C 36.840 39.160,36.784 48.700,37.931 49.738 C 38.609 50.351,47.429 50.400,156.731 50.400 L 274.800 50.400 274.800 56.357 C 274.800 63.432,274.129 62.800,281.639 62.800 L 287.212 62.800 287.106 74.900 L 287.000 87.000 281.552 87.111 C 274.519 87.254,274.858 86.902,274.712 94.218 L 274.600 99.800 268.500 99.910 L 262.400 100.021 262.400 106.210 L 262.400 112.400 256.662 112.400 C 249.279 112.400,249.660 112.026,249.512 119.418 L 249.400 125.000 244.200 125.098 C 236.455 125.243,237.200 124.572,237.200 131.408 L 237.200 137.200 231.408 137.200 C 224.572 137.200,225.243 136.455,225.098 144.200 L 225.000 149.400 219.418 149.512 C 212.026 149.660,212.400 149.279,212.400 156.662 L 212.400 162.400 206.210 162.400 L 200.021 162.400 199.910 168.500 L 199.800 174.600 194.218 174.712 C 186.902 174.858,187.254 174.519,187.111 181.552 L 187.000 187.000 181.552 187.111 C 174.519 187.254,174.858 186.902,174.712 194.218 L 174.600 199.800 168.500 199.910 L 162.400 200.021 162.400 206.210 L 162.400 212.400 156.662 212.400 C 149.279 212.400,149.660 212.026,149.512 219.418 L 149.400 225.000 144.200 225.098 C 136.455 225.243,137.200 224.572,137.200 231.408 L 137.200 237.200 131.408 237.200 C 124.572 237.200,125.243 236.455,125.098 244.200 L 125.000 249.400 119.418 249.512 C 112.026 249.660,112.400 249.279,112.400 256.662 L 112.400 262.400 106.210 262.400 L 100.021 262.400 99.910 268.500 L 99.800 274.600 94.218 274.712 C 86.902 274.858,87.254 274.519,87.111 281.552 L 87.000 287.000 81.552 287.111 C 74.519 287.254,74.858 286.902,74.712 294.218 L 74.600 299.800 68.500 299.910 L 62.400 300.021 62.400 306.210 L 62.400 312.400 56.662 312.400 C 49.279 312.400,49.660 312.026,49.512 319.418 L 49.400 325.000 44.200 325.098 C 41.340 325.151,38.595 325.290,38.100 325.405 L 37.200 325.615 37.200 344.000 L 37.200 362.385 38.100 362.602 C 38.595 362.721,103.440 362.769,182.200 362.709 L 325.400 362.600 325.511 356.894 C 325.579 353.411,325.456 350.879,325.197 350.394 C 324.774 349.605,324.064 349.600,200.186 349.600 L 75.600 349.600 75.600 331.400 L 75.600 313.200 81.171 313.200 C 88.401 313.200,88.000 313.613,88.000 306.171 L 88.000 300.400 93.720 300.400 C 100.862 300.400,100.400 300.862,100.400 293.720 L 100.400 288.000 106.171 288.000 C 113.613 288.000,113.200 288.401,113.200 281.171 L 113.200 275.600 118.986 275.600 C 126.030 275.600,125.600 276.066,125.600 268.426 L 125.600 262.800 131.300 262.794 C 138.519 262.786,137.955 263.319,138.089 256.383 L 138.200 250.600 143.582 250.488 C 150.669 250.340,150.346 250.660,150.489 243.648 L 150.600 238.200 156.383 238.089 C 163.319 237.955,162.786 238.519,162.794 231.300 L 162.800 225.600 168.426 225.600 C 176.066 225.600,175.600 226.030,175.600 218.986 L 175.600 213.200 181.171 213.200 C 188.401 213.200,188.000 213.613,188.000 206.171 L 188.000 200.400 193.720 200.400 C 200.862 200.400,200.400 200.862,200.400 193.720 L 200.400 188.000 206.171 188.000 C 213.613 188.000,213.200 188.401,213.200 181.171 L 213.200 175.600 218.986 175.600 C 226.030 175.600,225.600 176.066,225.600 168.426 L 225.600 162.800 231.300 162.794 C 238.519 162.786,237.955 163.319,238.089 156.383 L 238.200 150.600 243.648 150.489 C 250.660 150.346,250.340 150.669,250.488 143.582 L 250.600 138.200 256.383 138.089 C 263.319 137.955,262.786 138.519,262.794 131.300 L 262.800 125.600 268.426 125.600 C 276.066 125.600,275.600 126.030,275.600 118.986 L 275.600 113.200 281.171 113.200 C 288.401 113.200,288.000 113.613,288.000 106.171 L 288.000 100.400 293.720 100.400 C 300.862 100.400,300.400 100.862,300.400 93.720 L 300.400 88.000 306.171 88.000 C 313.613 88.000,313.200 88.401,313.200 81.171 L 313.200 75.600 318.986 75.600 C 326.030 75.600,325.600 76.066,325.600 68.426 L 325.600 62.800 331.167 62.800 C 334.229 62.800,337.019 62.691,337.367 62.557 C 338.134 62.263,338.338 39.378,337.586 37.974 C 336.921 36.732,39.242 36.758,38.000 38.000 M337.200 50.190 L 337.200 62.379 331.100 62.490 L 325.000 62.600 324.890 68.700 L 324.779 74.800 318.797 74.800 C 311.741 74.800,312.443 74.044,312.298 81.800 L 312.200 87.000 306.144 87.110 C 298.968 87.241,299.613 86.531,299.605 94.300 L 299.600 99.600 294.300 99.605 C 286.531 99.613,287.241 98.968,287.110 106.144 L 287.000 112.200 281.800 112.298 C 274.044 112.443,274.800 111.741,274.800 118.797 L 274.800 124.779 268.700 124.890 L 262.600 125.000 262.490 131.100 L 262.379 137.200 256.490 137.206 C 249.055 137.214,249.645 136.671,249.511 143.617 L 249.400 149.400 243.617 149.511 C 236.671 149.645,237.214 149.055,237.206 156.490 L 237.200 162.379 231.100 162.490 L 225.000 162.600 224.890 168.700 L 224.779 174.800 218.797 174.800 C 211.741 174.800,212.443 174.044,212.298 181.800 L 212.200 187.000 206.144 187.110 C 198.968 187.241,199.613 186.531,199.605 194.300 L 199.600 199.600 194.300 199.605 C 186.531 199.613,187.241 198.968,187.110 206.144 L 187.000 212.200 181.800 212.298 C 174.044 212.443,174.800 211.741,174.800 218.797 L 174.800 224.779 168.700 224.890 L 162.600 225.000 162.490 231.100 L 162.379 237.200 156.490 237.206 C 149.055 237.214,149.645 236.671,149.511 243.617 L 149.400 249.400 143.617 249.511 C 136.671 249.645,137.214 249.055,137.206 256.490 L 137.200 262.379 131.100 262.490 L 125.000 262.600 124.890 268.700 L 124.779 274.800 118.797 274.800 C 111.741 274.800,112.443 274.044,112.298 281.800 L 112.200 287.000 106.144 287.110 C 98.968 287.241,99.613 286.531,99.605 294.300 L 99.600 299.600 94.300 299.605 C 86.531 299.613,87.241 298.968,87.110 306.144 L 87.000 312.200 81.800 312.298 C 78.940 312.351,76.193 312.490,75.696 312.606 L 74.792 312.817 74.896 331.509 L 75.000 350.200 199.900 350.301 L 324.800 350.401 324.800 356.401 L 324.800 362.400 181.400 362.400 L 38.000 362.400 38.000 344.000 L 38.000 325.600 43.567 325.600 C 51.070 325.600,50.400 326.230,50.400 319.168 L 50.400 313.221 56.500 313.110 L 62.600 313.000 62.710 306.700 L 62.820 300.400 68.710 300.394 C 76.145 300.386,75.555 300.929,75.689 293.983 L 75.800 288.200 81.800 288.000 L 87.800 287.800 88.000 281.800 L 88.200 275.800 93.983 275.689 C 100.929 275.555,100.386 276.145,100.394 268.710 L 100.400 262.820 106.700 262.710 L 113.000 262.600 113.110 256.500 L 113.221 250.400 119.168 250.400 C 126.230 250.400,125.600 251.068,125.600 243.578 L 125.600 238.021 131.700 237.910 L 137.800 237.800 137.910 231.700 L 138.021 225.600 143.578 225.600 C 151.068 225.600,150.400 226.230,150.400 219.168 L 150.400 213.221 156.500 213.110 L 162.600 213.000 162.710 206.700 L 162.820 200.400 168.710 200.394 C 176.145 200.386,175.555 200.929,175.689 193.983 L 175.800 188.200 181.800 188.000 L 187.800 187.800 188.000 181.800 L 188.200 175.800 193.983 175.689 C 200.929 175.555,200.386 176.145,200.394 168.710 L 200.400 162.820 206.700 162.710 L 213.000 162.600 213.110 156.500 L 213.221 150.400 219.168 150.400 C 226.230 150.400,225.600 151.068,225.600 143.578 L 225.600 138.021 231.700 137.910 L 237.800 137.800 237.910 131.700 L 238.021 125.600 243.578 125.600 C 251.068 125.600,250.400 126.230,250.400 119.168 L 250.400 113.221 256.500 113.110 L 262.600 113.000 262.710 106.700 L 262.820 100.400 268.710 100.394 C 276.145 100.386,275.555 100.929,275.689 93.983 L 275.800 88.200 281.800 88.000 L 287.800 87.800 287.800 75.200 L 287.800 62.600 281.710 62.490 L 275.620 62.379 275.510 56.090 L 275.400 49.800 156.800 49.600 L 38.200 49.400 38.088 44.256 C 38.012 40.804,38.127 38.929,38.437 38.556 C 38.829 38.083,61.232 38.000,188.049 38.000 L 337.200 38.000 337.200 50.190 " stroke="none" fill="#044ce0" fill-rule="evenodd"></path><path id="path4" d="M362.800 37.800 C 362.800 38.307,363.733 38.400,368.800 38.400 L 374.800 38.400 374.800 50.800 C 374.800 61.556,374.880 63.200,375.400 63.200 C 375.921 63.200,376.000 61.489,376.000 50.200 L 376.000 37.200 369.400 37.200 C 363.800 37.200,362.800 37.291,362.800 37.800 M24.800 50.400 C 24.800 50.649,27.133 50.800,31.000 50.800 C 34.867 50.800,37.200 50.649,37.200 50.400 C 37.200 50.151,34.867 50.000,31.000 50.000 C 27.133 50.000,24.800 50.151,24.800 50.400 M274.400 74.800 L 274.400 86.400 268.400 86.400 C 263.333 86.400,262.400 86.493,262.400 87.000 C 262.400 87.924,274.602 87.892,274.957 86.967 C 275.386 85.851,275.236 63.200,274.800 63.200 C 274.543 63.200,274.400 67.333,274.400 74.800 M349.867 75.067 C 349.720 75.213,349.600 77.913,349.600 81.067 L 349.600 86.800 344.174 86.800 C 336.708 86.800,337.200 86.291,337.200 94.014 C 337.200 100.133,337.233 100.400,338.000 100.400 C 338.764 100.400,338.800 100.133,338.800 94.400 L 338.800 88.400 344.800 88.400 L 350.800 88.400 350.800 82.200 L 350.800 76.000 357.000 76.000 C 362.244 76.000,363.200 75.908,363.200 75.400 C 363.200 74.770,350.481 74.452,349.867 75.067 M249.200 105.600 L 249.200 111.600 243.200 111.600 C 237.753 111.600,237.200 111.664,237.199 112.300 C 237.199 113.165,249.138 113.136,249.689 112.270 C 250.153 111.541,250.069 99.600,249.600 99.600 C 249.351 99.600,249.200 101.867,249.200 105.600 M312.662 112.731 C 311.555 113.955,311.680 125.600,312.800 125.600 C 313.564 125.600,313.600 125.333,313.600 119.600 L 313.600 113.600 319.600 113.600 C 325.333 113.600,325.600 113.564,325.600 112.800 C 325.600 111.621,313.724 111.558,312.662 112.731 M211.600 143.200 L 211.600 149.200 205.600 149.200 C 201.867 149.200,199.600 149.351,199.600 149.600 C 199.600 150.069,211.541 150.153,212.270 149.689 C 213.136 149.138,213.165 137.199,212.300 137.199 C 211.664 137.200,211.600 137.753,211.600 143.200 M287.214 137.974 C 286.986 138.399,286.800 141.184,286.800 144.163 L 286.800 149.579 280.900 149.689 L 275.000 149.800 274.890 156.500 C 274.796 162.284,274.864 163.200,275.390 163.200 C 275.910 163.200,276.000 162.288,276.000 157.000 L 276.000 150.800 282.200 150.800 L 288.400 150.800 288.400 144.800 L 288.400 138.800 294.400 138.800 C 300.133 138.800,300.400 138.764,300.400 138.000 C 300.400 136.780,287.866 136.755,287.214 137.974 M186.400 168.400 L 186.400 174.400 180.400 174.400 L 174.400 174.400 174.400 180.400 L 174.400 186.400 168.400 186.400 C 163.333 186.400,162.400 186.493,162.400 187.000 C 162.400 187.507,163.355 187.600,168.592 187.600 C 175.893 187.600,175.156 188.368,175.302 180.600 L 175.400 175.400 180.600 175.302 C 188.368 175.156,187.600 175.893,187.600 168.592 C 187.600 163.355,187.507 162.400,187.000 162.400 C 186.493 162.400,186.400 163.333,186.400 168.400 M249.867 175.067 C 249.720 175.213,249.600 177.913,249.600 181.067 L 249.600 186.800 244.174 186.800 C 236.708 186.800,237.200 186.291,237.200 194.014 C 237.200 200.133,237.233 200.400,238.000 200.400 C 238.764 200.400,238.800 200.133,238.800 194.400 L 238.800 188.400 244.800 188.400 L 250.800 188.400 250.800 182.200 L 250.800 176.000 257.000 176.000 C 262.244 176.000,263.200 175.908,263.200 175.400 C 263.200 174.770,250.481 174.452,249.867 175.067 M149.200 205.600 L 149.200 211.600 143.200 211.600 C 137.753 211.600,137.200 211.664,137.199 212.300 C 137.199 213.165,149.138 213.136,149.689 212.270 C 150.153 211.541,150.069 199.600,149.600 199.600 C 149.351 199.600,149.200 201.867,149.200 205.600 M212.662 212.731 C 211.555 213.955,211.680 225.600,212.800 225.600 C 213.564 225.600,213.600 225.333,213.600 219.600 L 213.600 213.600 219.600 213.600 C 225.333 213.600,225.600 213.564,225.600 212.800 C 225.600 211.621,213.724 211.558,212.662 212.731 M111.600 243.200 L 111.600 249.200 105.600 249.200 C 101.867 249.200,99.600 249.351,99.600 249.600 C 99.600 250.069,111.541 250.153,112.270 249.689 C 113.136 249.138,113.165 237.199,112.300 237.199 C 111.664 237.200,111.600 237.753,111.600 243.200 M187.214 237.974 C 186.986 238.399,186.800 241.184,186.800 244.163 L 186.800 249.579 180.900 249.689 L 175.000 249.800 174.890 256.500 C 174.796 262.284,174.864 263.200,175.390 263.200 C 175.910 263.200,176.000 262.288,176.000 257.000 L 176.000 250.800 182.200 250.800 L 188.400 250.800 188.400 244.800 L 188.400 238.800 194.400 238.800 C 200.133 238.800,200.400 238.764,200.400 238.000 C 200.400 236.780,187.866 236.755,187.214 237.974 M86.400 268.400 L 86.400 274.400 80.400 274.400 L 74.400 274.400 74.400 280.400 L 74.400 286.400 68.400 286.400 C 63.333 286.400,62.400 286.493,62.400 287.000 C 62.400 287.507,63.355 287.600,68.592 287.600 C 75.893 287.600,75.156 288.368,75.302 280.600 L 75.400 275.400 80.600 275.302 C 88.368 275.156,87.600 275.893,87.600 268.592 C 87.600 263.355,87.507 262.400,87.000 262.400 C 86.493 262.400,86.400 263.333,86.400 268.400 M149.867 275.067 C 149.720 275.213,149.600 277.913,149.600 281.067 L 149.600 286.800 144.174 286.800 C 136.708 286.800,137.200 286.291,137.200 294.014 C 137.200 300.133,137.233 300.400,138.000 300.400 C 138.764 300.400,138.800 300.133,138.800 294.400 L 138.800 288.400 144.800 288.400 L 150.800 288.400 150.800 282.200 L 150.800 276.000 157.000 276.000 C 162.244 276.000,163.200 275.908,163.200 275.400 C 163.200 274.770,150.481 274.452,149.867 275.067 M49.200 305.600 L 49.200 311.600 43.200 311.600 C 37.753 311.600,37.200 311.664,37.199 312.300 C 37.199 313.165,49.138 313.136,49.689 312.270 C 50.153 311.541,50.069 299.600,49.600 299.600 C 49.351 299.600,49.200 301.867,49.200 305.600 M112.662 312.731 C 111.536 313.976,111.667 337.200,112.800 337.200 C 113.582 337.200,113.600 336.933,113.600 325.400 L 113.600 313.600 119.600 313.600 C 125.333 313.600,125.600 313.564,125.600 312.800 C 125.600 311.621,113.724 311.558,112.662 312.731 M325.300 337.700 C 325.420 338.063,327.076 338.230,331.333 338.311 L 337.200 338.421 337.200 343.734 C 337.200 350.743,336.826 350.360,343.800 350.493 L 349.400 350.600 349.510 356.900 C 349.602 362.135,349.720 363.200,350.210 363.200 C 350.707 363.200,350.800 362.102,350.800 356.200 L 350.800 349.200 344.800 349.200 L 338.800 349.200 338.800 343.200 L 338.800 337.200 331.967 337.200 C 326.678 337.200,325.171 337.313,325.300 337.700 M337.200 368.754 L 337.200 374.708 325.100 374.979 C 318.445 375.127,250.945 375.193,175.100 375.125 C 64.980 375.025,37.200 375.101,37.200 375.500 C 37.200 375.899,67.627 376.000,188.000 376.000 L 338.800 376.000 338.800 369.400 C 338.800 363.067,338.768 362.800,338.000 362.800 C 337.236 362.800,337.200 363.067,337.200 368.754 " stroke="none" fill="#041f55" fill-rule="evenodd"></path></g></svg>